<svg width="600" height="600" viewBox="0 0 600 600" fill="none" xmlns="http://www.w3.org/2000/svg">
<rect width="600" height="600" fill="white"/>
<path fill-rule="evenodd" clip-rule="evenodd" d="M430.563 132.959C396.671 105.653 353.727 92 301.733 92C262.064 92 227.208 100.846 197.167 118.537C167.126 135.844 143.825 160.265 127.264 191.802C111.088 223.339 103 259.298 103 299.681C103 340.063 111.088 376.023 127.264 407.559C136.426 425.006 147.651 440.334 160.938 453.544C182.466 422.93 196.643 407.167 230.097 384.484C212.38 363.331 203.522 335.063 203.522 299.681C203.522 264.298 212.38 236.03 230.097 214.878C247.813 193.725 271.114 183.149 300 183.149C321.953 183.149 340.825 188.533 356.616 199.302C372.792 210.07 384.731 224.877 392.434 243.722H497C486.986 197.186 464.841 160.265 430.563 132.959ZM356.616 399.483C390.037 421.71 405.602 436.838 426.676 469.444C427.985 468.449 429.28 467.436 430.563 466.402C464.841 438.711 486.986 401.79 497 355.639H392.434C384.731 374.1 372.792 388.714 356.616 399.483Z" fill="#36C9C9"/>
<path d="M300 415.636C271.114 415.636 247.813 405.252 230.097 384.484C196.643 407.167 182.466 422.93 160.938 453.544C171.669 464.211 183.746 473.497 197.167 481.401C227.208 498.708 262.064 507.361 301.733 507.361C351.76 507.361 393.407 494.722 426.676 469.444C405.602 436.838 390.037 421.71 356.616 399.483C340.825 410.251 321.953 415.636 300 415.636Z" fill="#36C9C9"/>
<path fill-rule="evenodd" clip-rule="evenodd" d="M430.563 132.959C396.671 105.653 353.727 92 301.733 92C262.064 92 227.208 100.846 197.167 118.537C167.126 135.844 143.825 160.265 127.264 191.802C111.088 223.339 103 259.298 103 299.681C103 340.063 111.088 376.023 127.264 407.559C136.426 425.006 147.651 440.334 160.938 453.544L230.097 384.484C212.38 363.331 203.522 335.063 203.522 299.681C203.522 264.298 212.38 236.03 230.097 214.878C247.813 193.725 271.114 183.149 300 183.149C321.953 183.149 340.825 188.533 356.616 199.302C372.792 210.07 384.731 224.877 392.434 243.722H497C486.986 197.186 464.841 160.265 430.563 132.959ZM356.616 399.483L426.676 469.444C427.985 468.449 429.28 467.436 430.563 466.402C464.841 438.711 486.986 401.79 497 355.639H392.434C384.731 374.1 372.792 388.714 356.616 399.483Z" fill="#1C63BB"/>
<ellipse cx="300" cy="300.274" rx="53.4036" ry="52.8102" fill="#36C9C9"/>
</svg>
